<svg xmlns="http://www.w3.org/2000/svg" width="25" height="27" viewBox="0 0 25 27">
    <g fill="none" fill-rule="evenodd">
        <path fill="#EFE12E" d="M17.1 14.645H1.024v6.812l2.584-2.554 4.306 7.095h9.188l6.89-11.353z"/>
        <path fill="#FFFCD7" d="M7.913 14.645l9.188 11.353V14.645M1.407 14.645l6.506 11.353V14.645"/>
        <path fill="#E3D4B5" stroke="#000" stroke-linecap="round" stroke-linejoin="round" stroke-width="1.005" d="M12.507 1.022c-2.537 0-4.594 2.033-4.594 4.541v9.082h9.188V5.563c0-1.204-.484-2.359-1.346-3.21a4.62 4.62 0 0 0-3.248-1.33z"/>
        <path stroke="#000" stroke-linecap="round" stroke-linejoin="round" stroke-width="1.005" d="M7.913 14.645h-6.89l6.89 11.353zM1.023 14.645v6.812l2.584-2.554zM7.913 14.645H17.1v11.353H7.913z"/>
        <path stroke="#000" stroke-linecap="round" stroke-linejoin="round" stroke-width="1.005" d="M23.992 14.645L17.1 25.998 7.913 14.645z"/>
        <path fill="#FFF" d="M11.618 11.342c0 .441-.461.799-1.03.799s-1.03-.358-1.03-.8V5.877c0-.441.461-.799 1.03-.799s1.03.358 1.03.8v5.465z"/>
    </g>
</svg>
