<svg xmlns="http://www.w3.org/2000/svg" width="20" height="20" viewBox="0 0 20 20">
    <g fill="none" fill-rule="evenodd">
        <path fill="#4A4A4A" d="M10 0C4.366 0 0 4.127 0 9.7c0 2.916 1.195 5.435 3.14 7.176.164.146.262.35.27.569l.055 1.779a.801.801 0 0 0 1.123.708l1.983-.875a.798.798 0 0 1 .534-.04c.911.25 1.883.384 2.895.384 5.634 0 10-4.127 10-9.7C20 4.126 15.634 0 10 0"/>
        <path fill="#FFFFFE" d="M3.996 12.537l2.938-4.66a1.501 1.501 0 0 1 2.169-.4l2.336 1.753a.6.6 0 0 0 .722-.002l3.155-2.395c.42-.32.972.185.688.632l-2.938 4.66a1.501 1.501 0 0 1-2.169.4l-2.336-1.752a.6.6 0 0 0-.722.002l-3.155 2.394c-.42.32-.972-.185-.688-.632"/>
    </g>
</svg>
